<svg width="330" height="96" viewBox="0 0 330 96" fill="none" xmlns="http://www.w3.org/2000/svg">
<path d="M71.3965 51.1382H75.1538C75.1538 52.9399 74.8901 54.4487 74.3628 55.6646C73.8354 56.8804 72.9492 57.8032 71.7041 58.4331C70.4736 59.0483 68.7744 59.356 66.6064 59.356L66.6284 56.4116C68.0493 56.4116 69.0967 56.2212 69.7705 55.8403C70.459 55.4595 70.8984 54.8809 71.0889 54.1045C71.2939 53.3135 71.3965 52.3247 71.3965 51.1382ZM62.3877 71.3091V53.2256H68.7158V77H62.7612L62.3877 71.3091ZM63.0908 66.4312L64.9585 66.3872C64.9585 67.9692 64.7754 69.4414 64.4092 70.8037C64.043 72.1514 63.4937 73.3232 62.7612 74.3193C62.0288 75.3008 61.106 76.0698 59.9927 76.6265C58.8794 77.1685 57.5684 77.4395 56.0596 77.4395C54.9023 77.4395 53.833 77.2783 52.8516 76.9561C51.8848 76.6191 51.0498 76.0991 50.3467 75.396C49.6582 74.6782 49.1162 73.7627 48.7207 72.6494C48.3398 71.5215 48.1494 70.1665 48.1494 68.5845V53.2256H54.4775V68.6284C54.4775 69.3315 54.5581 69.9248 54.7192 70.4082C54.895 70.8916 55.1367 71.2871 55.4443 71.5947C55.752 71.9023 56.1108 72.1221 56.521 72.2539C56.9458 72.3857 57.4146 72.4517 57.9272 72.4517C59.231 72.4517 60.2563 72.188 61.0034 71.6606C61.7651 71.1333 62.2998 70.4155 62.6074 69.5073C62.9297 68.5845 63.0908 67.5591 63.0908 66.4312ZM95.896 50.9624H99.6753C99.6753 52.7202 99.4043 54.229 98.8623 55.4888C98.335 56.7339 97.4927 57.6934 96.3354 58.3672C95.1929 59.0264 93.6987 59.356 91.853 59.356V56.6753C92.9517 56.6753 93.7866 56.4409 94.3579 55.9722C94.9438 55.5034 95.3467 54.8442 95.5664 53.9946C95.7861 53.145 95.896 52.1343 95.896 50.9624ZM74.6045 65.3545V64.8931C74.6045 63.1499 74.8535 61.5459 75.3516 60.0811C75.8496 58.6016 76.5747 57.3198 77.5269 56.2358C78.4937 55.1519 79.6729 54.3096 81.0645 53.709C82.4561 53.0938 84.0527 52.7861 85.8545 52.7861C87.6562 52.7861 89.2529 53.0938 90.6445 53.709C92.0508 54.3096 93.23 55.1519 94.1821 56.2358C95.1489 57.3198 95.8813 58.6016 96.3794 60.0811C96.8774 61.5459 97.1265 63.1499 97.1265 64.8931V65.3545C97.1265 67.083 96.8774 68.687 96.3794 70.1665C95.8813 71.6313 95.1489 72.9131 94.1821 74.0117C93.23 75.0957 92.0581 75.938 90.6665 76.5386C89.2749 77.1392 87.6855 77.4395 85.8984 77.4395C84.0967 77.4395 82.4927 77.1392 81.0864 76.5386C79.6802 75.938 78.4937 75.0957 77.5269 74.0117C76.5747 72.9131 75.8496 71.6313 75.3516 70.1665C74.8535 68.687 74.6045 67.083 74.6045 65.3545ZM80.9326 64.8931V65.3545C80.9326 66.3506 81.0205 67.2808 81.1963 68.145C81.3867 69.0093 81.6724 69.771 82.0532 70.4302C82.4487 71.0747 82.9614 71.5801 83.5913 71.9463C84.2212 72.3125 84.9902 72.4956 85.8984 72.4956C86.7773 72.4956 87.5244 72.3125 88.1396 71.9463C88.7695 71.5801 89.2749 71.0747 89.6558 70.4302C90.0366 69.771 90.3149 69.0093 90.4907 68.145C90.6812 67.2808 90.7764 66.3506 90.7764 65.3545V64.8931C90.7764 63.9263 90.6885 63.0181 90.5127 62.1685C90.3369 61.3042 90.0513 60.5425 89.6558 59.8833C89.2749 59.2095 88.7695 58.6821 88.1396 58.3013C87.5098 57.9204 86.748 57.73 85.8545 57.73C84.9609 57.73 84.1992 57.9204 83.5693 58.3013C82.9541 58.6821 82.4487 59.2095 82.0532 59.8833C81.6724 60.5425 81.3867 61.3042 81.1963 62.1685C81.0205 63.0181 80.9326 63.9263 80.9326 64.8931ZM108.003 58.3013V77H101.675V53.2256H107.607L108.003 58.3013ZM107.08 64.2778H105.366C105.366 62.52 105.593 60.938 106.047 59.5317C106.501 58.1108 107.139 56.9023 107.959 55.9062C108.779 54.8955 109.753 54.1265 110.881 53.5991C112.024 53.0571 113.298 52.7861 114.705 52.7861C115.818 52.7861 116.836 52.9473 117.759 53.2695C118.682 53.5918 119.473 54.1045 120.132 54.8076C120.806 55.5107 121.318 56.4409 121.67 57.5981C122.036 58.7554 122.219 60.1689 122.219 61.8389V77H115.847V61.8169C115.847 60.7622 115.701 59.9419 115.408 59.356C115.115 58.77 114.683 58.3599 114.111 58.1255C113.555 57.8765 112.866 57.752 112.046 57.752C111.196 57.752 110.457 57.9204 109.827 58.2573C109.211 58.5942 108.699 59.063 108.289 59.6636C107.893 60.2495 107.593 60.938 107.388 61.729C107.183 62.52 107.08 63.3696 107.08 64.2778ZM142.083 53.2256H147.817V76.209C147.817 78.377 147.334 80.2153 146.367 81.7241C145.415 83.2476 144.082 84.3975 142.368 85.1738C140.654 85.9648 138.662 86.3604 136.392 86.3604C135.396 86.3604 134.341 86.2285 133.228 85.9648C132.129 85.7012 131.074 85.291 130.063 84.7344C129.067 84.1777 128.232 83.4746 127.559 82.625L130.349 78.8896C131.082 79.7393 131.931 80.3984 132.898 80.8672C133.865 81.3506 134.934 81.5923 136.106 81.5923C137.249 81.5923 138.215 81.3799 139.006 80.9551C139.797 80.5449 140.405 79.937 140.83 79.1313C141.255 78.3403 141.467 77.3809 141.467 76.2529V58.7188L142.083 53.2256ZM126.086 65.3984V64.937C126.086 63.1206 126.306 61.4727 126.746 59.9932C127.2 58.499 127.837 57.2173 128.657 56.1479C129.492 55.0786 130.503 54.251 131.689 53.665C132.876 53.0791 134.216 52.7861 135.71 52.7861C137.292 52.7861 138.618 53.0791 139.688 53.665C140.757 54.251 141.636 55.0859 142.324 56.1699C143.013 57.2393 143.547 58.5063 143.928 59.9712C144.324 61.4214 144.631 63.0107 144.851 64.7393V65.75C144.631 67.4053 144.302 68.9434 143.862 70.3643C143.423 71.7852 142.844 73.0303 142.126 74.0996C141.409 75.1543 140.515 75.9746 139.446 76.5605C138.391 77.1465 137.131 77.4395 135.667 77.4395C134.202 77.4395 132.876 77.1392 131.689 76.5386C130.518 75.938 129.514 75.0957 128.679 74.0117C127.844 72.9277 127.2 71.6533 126.746 70.1885C126.306 68.7236 126.086 67.127 126.086 65.3984ZM132.415 64.937V65.3984C132.415 66.3799 132.51 67.2954 132.7 68.145C132.891 68.9946 133.184 69.749 133.579 70.4082C133.989 71.0527 134.495 71.5581 135.095 71.9243C135.71 72.2759 136.436 72.4517 137.271 72.4517C138.428 72.4517 139.373 72.21 140.105 71.7266C140.837 71.2285 141.387 70.5474 141.753 69.6831C142.119 68.8188 142.332 67.8228 142.39 66.6948V63.8164C142.361 62.8936 142.236 62.0659 142.017 61.3335C141.797 60.5864 141.489 59.9492 141.094 59.4219C140.698 58.8945 140.186 58.4844 139.556 58.1914C138.926 57.8984 138.179 57.752 137.314 57.752C136.479 57.752 135.754 57.9424 135.139 58.3232C134.539 58.6895 134.033 59.1948 133.623 59.8394C133.228 60.4839 132.927 61.2456 132.722 62.1245C132.517 62.9888 132.415 63.9263 132.415 64.937ZM192.532 43.25V77H186.204V43.25H192.532ZM191.631 64.2778H189.895C189.91 62.6226 190.129 61.0991 190.554 59.7075C190.979 58.3013 191.587 57.0854 192.378 56.0601C193.169 55.02 194.114 54.2144 195.212 53.6431C196.326 53.0718 197.556 52.7861 198.904 52.7861C200.076 52.7861 201.138 52.9546 202.09 53.2915C203.057 53.6138 203.884 54.1411 204.573 54.8735C205.276 55.5913 205.818 56.5361 206.199 57.708C206.58 58.8799 206.77 60.3008 206.77 61.9707V77H200.398V61.9268C200.398 60.8721 200.244 60.0444 199.937 59.4438C199.644 58.8286 199.211 58.3965 198.64 58.1475C198.083 57.8838 197.395 57.752 196.575 57.752C195.667 57.752 194.89 57.9204 194.246 58.2573C193.616 58.5942 193.11 59.063 192.729 59.6636C192.349 60.2495 192.07 60.938 191.895 61.729C191.719 62.52 191.631 63.3696 191.631 64.2778ZM224.414 71.6387V61.0479C224.414 60.2861 224.29 59.6343 224.041 59.0923C223.792 58.5356 223.403 58.1035 222.876 57.7959C222.363 57.4883 221.697 57.3345 220.876 57.3345C220.173 57.3345 219.565 57.459 219.053 57.708C218.54 57.9424 218.145 58.2866 217.866 58.7407C217.588 59.1802 217.449 59.7002 217.449 60.3008H211.121C211.121 59.29 211.355 58.3306 211.824 57.4224C212.292 56.5142 212.974 55.7158 213.867 55.0273C214.761 54.3242 215.823 53.7749 217.053 53.3794C218.298 52.9839 219.69 52.7861 221.228 52.7861C223.074 52.7861 224.714 53.0938 226.15 53.709C227.585 54.3242 228.713 55.2471 229.534 56.4775C230.369 57.708 230.786 59.2461 230.786 61.0918V71.2651C230.786 72.5688 230.867 73.6382 231.028 74.4731C231.189 75.2935 231.423 76.0112 231.731 76.6265V77H225.337C225.029 76.3555 224.795 75.5498 224.634 74.583C224.487 73.6016 224.414 72.6201 224.414 71.6387ZM225.249 62.52L225.293 66.1016H221.755C220.92 66.1016 220.195 66.1968 219.58 66.3872C218.965 66.5776 218.459 66.8486 218.064 67.2002C217.668 67.5371 217.375 67.9326 217.185 68.3867C217.009 68.8408 216.921 69.3389 216.921 69.8809C216.921 70.4229 217.046 70.9136 217.295 71.353C217.544 71.7778 217.903 72.1147 218.372 72.3638C218.84 72.5981 219.39 72.7153 220.02 72.7153C220.972 72.7153 221.799 72.5249 222.502 72.144C223.206 71.7632 223.748 71.2944 224.128 70.7378C224.524 70.1812 224.729 69.6538 224.744 69.1558L226.414 71.8364C226.179 72.437 225.857 73.0596 225.447 73.7041C225.051 74.3486 224.546 74.9565 223.931 75.5278C223.315 76.0845 222.576 76.5459 221.711 76.9121C220.847 77.2637 219.822 77.4395 218.635 77.4395C217.126 77.4395 215.757 77.1392 214.526 76.5386C213.311 75.9233 212.344 75.0811 211.626 74.0117C210.923 72.9277 210.571 71.6973 210.571 70.3203C210.571 69.0752 210.806 67.9692 211.274 67.0024C211.743 66.0356 212.432 65.2227 213.34 64.5635C214.263 63.8896 215.413 63.3843 216.79 63.0474C218.167 62.6958 219.763 62.52 221.58 62.52H225.249ZM218.196 50.0176L222.502 43.25H229.38L223.337 50.0176H218.196ZM241.86 58.3013V77H235.532V53.2256H241.465L241.86 58.3013ZM240.938 64.2778H239.224C239.224 62.52 239.451 60.938 239.905 59.5317C240.359 58.1108 240.996 56.9023 241.816 55.9062C242.637 54.8955 243.611 54.1265 244.739 53.5991C245.881 53.0571 247.156 52.7861 248.562 52.7861C249.675 52.7861 250.693 52.9473 251.616 53.2695C252.539 53.5918 253.33 54.1045 253.989 54.8076C254.663 55.5107 255.176 56.4409 255.527 57.5981C255.894 58.7554 256.077 60.1689 256.077 61.8389V77H249.705V61.8169C249.705 60.7622 249.558 59.9419 249.265 59.356C248.972 58.77 248.54 58.3599 247.969 58.1255C247.412 57.8765 246.724 57.752 245.903 57.752C245.054 57.752 244.314 57.9204 243.684 58.2573C243.069 58.5942 242.556 59.063 242.146 59.6636C241.75 60.2495 241.45 60.938 241.245 61.729C241.04 62.52 240.938 63.3696 240.938 64.2778ZM275.94 53.2256H281.675V76.209C281.675 78.377 281.191 80.2153 280.225 81.7241C279.272 83.2476 277.939 84.3975 276.226 85.1738C274.512 85.9648 272.52 86.3604 270.249 86.3604C269.253 86.3604 268.198 86.2285 267.085 85.9648C265.986 85.7012 264.932 85.291 263.921 84.7344C262.925 84.1777 262.09 83.4746 261.416 82.625L264.207 78.8896C264.939 79.7393 265.789 80.3984 266.755 80.8672C267.722 81.3506 268.792 81.5923 269.963 81.5923C271.106 81.5923 272.073 81.3799 272.864 80.9551C273.655 80.5449 274.263 79.937 274.688 79.1313C275.112 78.3403 275.325 77.3809 275.325 76.2529V58.7188L275.94 53.2256ZM259.944 65.3984V64.937C259.944 63.1206 260.164 61.4727 260.603 59.9932C261.057 58.499 261.694 57.2173 262.515 56.1479C263.35 55.0786 264.36 54.251 265.547 53.665C266.733 53.0791 268.074 52.7861 269.568 52.7861C271.15 52.7861 272.476 53.0791 273.545 53.665C274.614 54.251 275.493 55.0859 276.182 56.1699C276.87 57.2393 277.405 58.5063 277.786 59.9712C278.181 61.4214 278.489 63.0107 278.708 64.7393V65.75C278.489 67.4053 278.159 68.9434 277.72 70.3643C277.28 71.7852 276.702 73.0303 275.984 74.0996C275.266 75.1543 274.373 75.9746 273.303 76.5605C272.249 77.1465 270.989 77.4395 269.524 77.4395C268.059 77.4395 266.733 77.1392 265.547 76.5386C264.375 75.938 263.372 75.0957 262.537 74.0117C261.702 72.9277 261.057 71.6533 260.603 70.1885C260.164 68.7236 259.944 67.127 259.944 65.3984ZM266.272 64.937V65.3984C266.272 66.3799 266.367 67.2954 266.558 68.145C266.748 68.9946 267.041 69.749 267.437 70.4082C267.847 71.0527 268.352 71.5581 268.953 71.9243C269.568 72.2759 270.293 72.4517 271.128 72.4517C272.285 72.4517 273.23 72.21 273.962 71.7266C274.695 71.2285 275.244 70.5474 275.61 69.6831C275.977 68.8188 276.189 67.8228 276.248 66.6948V63.8164C276.218 62.8936 276.094 62.0659 275.874 61.3335C275.654 60.5864 275.347 59.9492 274.951 59.4219C274.556 58.8945 274.043 58.4844 273.413 58.1914C272.783 57.8984 272.036 57.752 271.172 57.752C270.337 57.752 269.612 57.9424 268.997 58.3232C268.396 58.6895 267.891 59.1948 267.48 59.8394C267.085 60.4839 266.785 61.2456 266.58 62.1245C266.375 62.9888 266.272 63.9263 266.272 64.937Z" fill="#5045E4"/>
<path d="M29.1636 78.44C31.0836 79.72 33.1316 80.968 35.3076 82.184C37.4836 83.464 39.8196 84.584 42.3156 85.544C44.8116 86.568 47.4356 87.368 50.1876 87.944C53.0036 88.584 55.9156 88.904 58.9236 88.904C61.3556 88.904 63.6596 88.616 65.8356 88.04C68.0116 87.464 69.9636 86.44 71.6916 84.968C71.6916 84.776 71.7876 84.52 71.9796 84.2C72.1716 83.944 72.3316 83.816 72.4596 83.816C72.5876 83.944 72.6516 84.008 72.6516 84.008V83.912C72.6516 83.976 72.6836 84.008 72.7476 84.008V84.104C72.7476 84.168 72.7156 84.2 72.6516 84.2L71.2116 91.112C70.6996 92.072 70.0276 92.84 69.1956 93.416C68.4276 94.056 67.5636 94.536 66.6036 94.856C65.6436 95.24 64.6516 95.496 63.6276 95.624C62.6036 95.752 61.6436 95.816 60.7476 95.816C57.8676 95.816 55.0196 95.336 52.2036 94.376C49.4516 93.48 46.6996 92.296 43.9476 90.824C41.2596 89.416 38.6036 87.816 35.9796 86.024C33.3556 84.232 30.7956 82.44 28.2996 80.648C28.2356 80.776 28.1396 81.16 28.0116 81.8C27.9476 82.44 27.8516 83.016 27.7236 83.528C27.6596 83.912 27.6276 84.232 27.6276 84.488C27.6276 84.744 27.5316 84.808 27.3396 84.68C26.9556 84.424 26.3156 83.88 25.4196 83.048C24.5236 82.216 24.0756 81.16 24.0756 79.88C24.0756 79.496 24.0756 79.048 24.0756 78.536C24.0756 78.088 24.1396 77.576 24.2676 77L23.9796 76.808C22.7636 75.784 21.6116 74.728 20.5236 73.64C19.4356 72.552 18.4116 71.464 17.4516 70.376L17.2596 70.184C16.7476 69.48 16.1076 68.68 15.3396 67.784C14.5716 66.824 14.1876 66.056 14.1876 65.48C14.1876 65.16 14.3476 64.712 14.6676 64.136C15.0516 63.496 15.3396 63.176 15.5316 63.176C15.5956 63.176 15.6916 63.24 15.8196 63.368C16.6516 65.416 17.8676 67.432 19.4676 69.416C21.0676 71.336 22.7956 73.128 24.6516 74.792C25.0996 72.616 25.7076 70.28 26.4756 67.784C27.2436 65.224 28.1396 62.664 29.1636 60.104C30.1876 57.544 31.3076 55.016 32.5236 52.52C33.8036 50.024 35.1796 47.656 36.6516 45.416C33.7716 48.552 31.1156 51.112 28.6836 53.096C26.2516 55.08 24.0116 56.648 21.9636 57.8C19.9796 58.952 18.1556 59.752 16.4916 60.2C14.8916 60.584 13.4836 60.776 12.2676 60.776C11.3076 60.776 10.4756 60.712 9.77158 60.584C9.06758 60.392 8.45958 60.168 7.94758 59.912C7.37158 59.656 6.92358 59.336 6.60358 58.952L2.47558 52.904C2.47558 52.904 2.50758 52.84 2.57158 52.712H2.85958C2.98758 52.712 3.14758 52.808 3.33958 53C3.53158 53.192 3.69158 53.352 3.81958 53.48C5.48358 53.992 7.11558 54.248 8.71558 54.248C11.2756 54.248 13.8996 53.736 16.5876 52.712C19.3396 51.688 22.0276 50.376 24.6516 48.776C27.2756 47.176 29.7716 45.416 32.1396 43.496C34.5716 41.512 36.7796 39.592 38.7636 37.736C40.8116 35.816 42.5716 34.088 44.0436 32.552C45.5796 30.952 46.7316 29.704 47.4996 28.808C47.5636 28.744 47.5636 28.648 47.4996 28.52C47.4996 28.328 47.5636 28.168 47.6916 28.04C48.3956 28.04 49.1636 28.2 49.9956 28.52C50.8916 28.84 51.6596 29.288 52.2996 29.864C52.9396 30.44 53.3876 31.112 53.6436 31.88C53.9636 32.648 53.9316 33.48 53.5476 34.376C52.8436 35.272 51.5956 36.808 49.8036 38.984C48.0756 41.096 46.0916 43.848 43.8516 47.24C41.6116 50.632 39.2756 54.664 36.8436 59.336C34.4116 64.008 32.1396 69.32 30.0276 75.272L29.1636 78.44Z" fill="#5045E4"/>
<path d="M153.391 34.08C153.327 33.952 153.295 33.76 153.295 33.504C153.487 32.608 153.647 31.712 153.775 30.816C153.903 29.92 154.127 29.12 154.447 28.416C154.639 27.904 155.087 27.488 155.791 27.168C156.495 26.784 157.103 26.464 157.615 26.208C159.023 25.568 160.431 25.088 161.839 24.768C163.311 24.384 164.783 24.032 166.255 23.712C169.711 23.136 173.199 22.88 176.719 22.944C180.239 22.944 183.759 23.008 187.279 23.136V22.656V22.56C187.279 22.496 187.311 22.432 187.375 22.368H187.759C187.759 22.368 187.951 22.432 188.335 22.56L188.719 22.752C188.783 22.752 188.815 22.784 188.815 22.848C188.879 22.848 188.943 22.848 189.007 22.848L189.391 23.04C189.455 23.04 189.487 23.072 189.487 23.136C189.551 23.136 189.615 23.136 189.679 23.136C189.743 23.136 189.775 23.168 189.775 23.232C189.839 23.232 189.871 23.264 189.871 23.328C189.935 23.328 189.999 23.328 190.063 23.328C193.071 23.52 196.015 23.744 198.895 24C201.839 24.256 204.815 24.416 207.823 24.48C213.199 24.48 218.575 23.904 223.951 22.752C224.207 22.688 224.399 22.624 224.527 22.56C224.655 22.432 224.783 22.304 224.911 22.176L225.007 22.08C225.071 22.08 225.103 22.08 225.103 22.08C225.103 22.016 225.135 21.984 225.199 21.984C225.327 21.984 225.391 22.048 225.391 22.176C225.711 23.2 225.903 24.256 225.967 25.344C226.031 26.432 225.871 27.456 225.487 28.416C225.167 29.184 224.623 29.792 223.855 30.24C223.151 30.624 222.383 30.88 221.551 31.008C216.559 31.392 211.599 31.424 206.671 31.104C201.743 30.72 196.783 30.336 191.791 29.952C191.407 30.464 190.831 31.2 190.063 32.16C189.359 33.12 188.559 34.24 187.663 35.52L186.799 36.864C185.967 38.016 185.135 39.232 184.303 40.512C183.471 41.792 182.607 43.072 181.711 44.352L179.695 47.424L178.255 49.728L176.239 53.184L175.567 54.432L174.991 55.584C174.607 56.352 174.191 57.248 173.743 58.272L172.591 60.96C172.271 61.728 172.015 62.432 171.823 63.072C171.503 63.776 171.247 64.48 171.055 65.184C170.863 65.824 170.639 66.464 170.383 67.104C170.255 67.552 170.127 68 169.999 68.448C169.871 68.832 169.743 69.216 169.615 69.6C169.295 70.496 169.007 71.328 168.751 72.096C168.559 72.864 168.399 73.536 168.271 74.112C168.079 74.816 167.951 75.424 167.887 75.936L167.695 76.896C167.631 77.152 167.567 77.408 167.503 77.664C167.503 77.92 167.535 78.112 167.599 78.24L167.695 78.336V78.432C167.695 78.496 167.695 78.528 167.695 78.528C167.759 78.592 167.791 78.656 167.791 78.72C167.791 78.976 167.759 79.136 167.695 79.2L167.599 79.296C167.471 79.36 167.343 79.328 167.215 79.2C167.151 79.136 167.087 79.104 167.023 79.104L166.831 78.912L166.351 78.528C166.223 78.4 166.095 78.272 165.967 78.144C165.839 78.016 165.711 77.888 165.583 77.76C165.263 77.504 164.975 77.248 164.719 76.992C164.527 76.736 164.303 76.48 164.047 76.224C163.919 76.096 163.823 75.872 163.759 75.552C163.695 75.296 163.631 74.976 163.567 74.592C163.503 73.696 163.535 72.544 163.663 71.136C163.855 69.728 164.079 68.192 164.335 66.528C164.655 64.864 165.039 63.136 165.487 61.344C165.999 59.552 166.543 57.792 167.119 56.064L167.311 55.392L167.887 54.048L168.943 51.648L169.423 50.784C169.743 50.144 170.063 49.504 170.383 48.864C170.767 48.224 171.151 47.552 171.535 46.848L173.647 43.296C173.839 43.04 174.063 42.656 174.319 42.144L176.047 39.552L177.775 36.864L179.503 34.272C177.903 35.552 176.015 36.672 173.839 37.632C171.727 38.592 169.231 39.008 166.351 38.88C164.047 38.816 162.063 38.528 160.399 38.016C158.799 37.504 157.455 36.96 156.367 36.384C155.151 35.68 154.159 34.912 153.391 34.08ZM156.559 31.68H156.367C156.495 32.064 156.751 32.544 157.135 33.12C157.519 33.696 158.095 34.272 158.863 34.848C159.631 35.424 160.623 35.936 161.839 36.384C163.055 36.832 164.591 37.088 166.447 37.152C168.431 37.28 170.287 37.056 172.015 36.48C173.807 35.84 175.407 35.072 176.815 34.176C178.223 33.28 179.407 32.384 180.367 31.488C181.327 30.528 182.031 29.792 182.479 29.28C178.063 28.96 173.679 28.928 169.327 29.184C165.039 29.44 160.783 30.24 156.559 31.584V31.68ZM186.127 24.768C186.191 24.768 186.223 24.736 186.223 24.672L186.127 24.768Z" fill="#5045E4"/>
</svg>
