<svg width="338" height="132" viewBox="0 0 338 132" fill="none" xmlns="http://www.w3.org/2000/svg">
<path d="M5.63154 100.027C5.50133 99.7018 5.43623 98.5299 5.43623 96.5117C5.43623 94.4935 5.43623 91.9544 5.43623 88.8945C5.50133 85.8346 5.56644 82.4167 5.63154 78.6406C5.76175 74.7995 5.8594 70.9258 5.92451 67.0195C6.05472 63.0482 6.18493 59.207 6.31513 55.4961C6.44534 51.7201 6.543 48.3672 6.6081 45.4375C6.73831 42.5078 6.83597 40.1315 6.90107 38.3086C6.96618 36.4206 7.03128 35.4115 7.09638 35.2812C7.16149 35.0208 7.45446 34.3698 7.97529 33.3281C8.49612 32.2865 9.08206 31.2122 9.7331 30.1055C10.4492 28.9336 11.1654 27.9245 11.8815 27.0781C12.5977 26.1667 13.2162 25.7435 13.737 25.8086C13.9323 25.8737 14.0951 27.1758 14.2253 29.7148C14.4206 32.1888 14.5834 35.3789 14.7136 39.2852C14.9089 43.1914 15.0391 47.5208 15.1042 52.2734C15.2344 56.9609 15.3321 61.5508 15.3972 66.043C15.5274 70.4701 15.625 74.5065 15.6901 78.1523C15.7552 81.7331 15.8203 84.3698 15.8854 86.0625C17.9688 86.2578 20.0521 86.4206 22.1354 86.5508C24.2839 86.681 26.2045 86.8438 27.8972 87.0391C29.5899 87.1693 30.9571 87.2995 31.9987 87.4297C33.1055 87.5599 33.6914 87.6576 33.7565 87.7227C33.9519 87.9831 34.2123 88.6016 34.5378 89.5781C34.9284 90.4896 35.2865 91.4987 35.612 92.6055C35.9375 93.6471 36.1654 94.6237 36.2956 95.5352C36.4909 96.4466 36.4584 97 36.1979 97.1953C28.711 98.5625 22.9167 99.474 18.8151 99.9297C14.7136 100.385 11.6862 100.613 9.7331 100.613C7.45446 100.613 6.08727 100.418 5.63154 100.027Z" fill="#2F3A56"/>
<path d="M42.0869 74.3091V56.2256H48.415V80H42.4604L42.0869 74.3091ZM42.79 69.4312L44.6577 69.3872C44.6577 70.9692 44.4746 72.4414 44.1084 73.8037C43.7422 75.1514 43.1929 76.3232 42.4604 77.3193C41.728 78.3008 40.8052 79.0698 39.6919 79.6265C38.5786 80.1685 37.2676 80.4395 35.7588 80.4395C34.6016 80.4395 33.5322 80.2783 32.5508 79.9561C31.584 79.6191 30.749 79.0991 30.0459 78.396C29.3574 77.6782 28.8154 76.7627 28.4199 75.6494C28.0391 74.5215 27.8486 73.1665 27.8486 71.5845V56.2256H34.1768V71.6284C34.1768 72.3315 34.2573 72.9248 34.4185 73.4082C34.5942 73.8916 34.8359 74.2871 35.1436 74.5947C35.4512 74.9023 35.8101 75.1221 36.2202 75.2539C36.645 75.3857 37.1138 75.4517 37.6265 75.4517C38.9302 75.4517 39.9556 75.188 40.7026 74.6606C41.4644 74.1333 41.999 73.4155 42.3066 72.5073C42.6289 71.5845 42.79 70.5591 42.79 69.4312ZM52.2383 68.3545V67.8931C52.2383 66.1499 52.4873 64.5459 52.9854 63.0811C53.4834 61.6016 54.2085 60.3198 55.1606 59.2358C56.1128 58.1519 57.2847 57.3096 58.6763 56.709C60.0679 56.0938 61.6646 55.7861 63.4663 55.7861C65.2681 55.7861 66.8721 56.0938 68.2783 56.709C69.6846 57.3096 70.8638 58.1519 71.8159 59.2358C72.7827 60.3198 73.5151 61.6016 74.0132 63.0811C74.5112 64.5459 74.7603 66.1499 74.7603 67.8931V68.3545C74.7603 70.083 74.5112 71.687 74.0132 73.1665C73.5151 74.6313 72.7827 75.9131 71.8159 77.0117C70.8638 78.0957 69.6919 78.938 68.3003 79.5386C66.9087 80.1392 65.312 80.4395 63.5103 80.4395C61.7085 80.4395 60.1045 80.1392 58.6982 79.5386C57.3066 78.938 56.1274 78.0957 55.1606 77.0117C54.2085 75.9131 53.4834 74.6313 52.9854 73.1665C52.4873 71.687 52.2383 70.083 52.2383 68.3545ZM58.5664 67.8931V68.3545C58.5664 69.3506 58.6543 70.2808 58.8301 71.145C59.0059 72.0093 59.2842 72.771 59.665 73.4302C60.0605 74.0747 60.5732 74.5801 61.2031 74.9463C61.833 75.3125 62.6021 75.4956 63.5103 75.4956C64.3892 75.4956 65.1436 75.3125 65.7734 74.9463C66.4033 74.5801 66.9087 74.0747 67.2896 73.4302C67.6704 72.771 67.9487 72.0093 68.1245 71.145C68.3149 70.2808 68.4102 69.3506 68.4102 68.3545V67.8931C68.4102 66.9263 68.3149 66.0181 68.1245 65.1685C67.9487 64.3042 67.6631 63.5425 67.2676 62.8833C66.8867 62.2095 66.3813 61.6821 65.7515 61.3013C65.1216 60.9204 64.3599 60.73 63.4663 60.73C62.5728 60.73 61.811 60.9204 61.1812 61.3013C60.5659 61.6821 60.0605 62.2095 59.665 62.8833C59.2842 63.5425 59.0059 64.3042 58.8301 65.1685C58.6543 66.0181 58.5664 66.9263 58.5664 67.8931ZM84.8457 61.3013V80H78.5176V56.2256H84.4502L84.8457 61.3013ZM83.9229 67.2778H82.209C82.209 65.52 82.436 63.938 82.8901 62.5317C83.3442 61.1108 83.9814 59.9023 84.8018 58.9062C85.6221 57.8955 86.5962 57.1265 87.7241 56.5991C88.8667 56.0571 90.1411 55.7861 91.5474 55.7861C92.6606 55.7861 93.6787 55.9473 94.6016 56.2695C95.5244 56.5918 96.3154 57.1045 96.9746 57.8076C97.6484 58.5107 98.1611 59.4409 98.5127 60.5981C98.8789 61.7554 99.062 63.1689 99.062 64.8389V80H92.6899V64.8169C92.6899 63.7622 92.5435 62.9419 92.2505 62.356C91.9575 61.77 91.5254 61.3599 90.9541 61.1255C90.3975 60.8765 89.709 60.752 88.8887 60.752C88.0391 60.752 87.2993 60.9204 86.6694 61.2573C86.0542 61.5942 85.5415 62.063 85.1313 62.6636C84.7358 63.2495 84.4355 63.938 84.2305 64.729C84.0254 65.52 83.9229 66.3696 83.9229 67.2778ZM118.925 56.2256H124.66V79.209C124.66 81.377 124.177 83.2153 123.21 84.7241C122.258 86.2476 120.925 87.3975 119.211 88.1738C117.497 88.9648 115.505 89.3604 113.234 89.3604C112.238 89.3604 111.184 89.2285 110.07 88.9648C108.972 88.7012 107.917 88.291 106.906 87.7344C105.91 87.1777 105.075 86.4746 104.401 85.625L107.192 81.8896C107.924 82.7393 108.774 83.3984 109.741 83.8672C110.708 84.3506 111.777 84.5923 112.949 84.5923C114.091 84.5923 115.058 84.3799 115.849 83.9551C116.64 83.5449 117.248 82.937 117.673 82.1313C118.098 81.3403 118.31 80.3809 118.31 79.2529V61.7188L118.925 56.2256ZM102.929 68.3984V67.937C102.929 66.1206 103.149 64.4727 103.588 62.9932C104.042 61.499 104.68 60.2173 105.5 59.1479C106.335 58.0786 107.346 57.251 108.532 56.665C109.719 56.0791 111.059 55.7861 112.553 55.7861C114.135 55.7861 115.461 56.0791 116.53 56.665C117.6 57.251 118.479 58.0859 119.167 59.1699C119.855 60.2393 120.39 61.5063 120.771 62.9712C121.167 64.4214 121.474 66.0107 121.694 67.7393V68.75C121.474 70.4053 121.145 71.9434 120.705 73.3643C120.266 74.7852 119.687 76.0303 118.969 77.0996C118.251 78.1543 117.358 78.9746 116.289 79.5605C115.234 80.1465 113.974 80.4395 112.509 80.4395C111.044 80.4395 109.719 80.1392 108.532 79.5386C107.36 78.938 106.357 78.0957 105.522 77.0117C104.687 75.9277 104.042 74.6533 103.588 73.1885C103.149 71.7236 102.929 70.127 102.929 68.3984ZM109.257 67.937V68.3984C109.257 69.3799 109.353 70.2954 109.543 71.145C109.733 71.9946 110.026 72.749 110.422 73.4082C110.832 74.0527 111.337 74.5581 111.938 74.9243C112.553 75.2759 113.278 75.4517 114.113 75.4517C115.271 75.4517 116.215 75.21 116.948 74.7266C117.68 74.2285 118.229 73.5474 118.596 72.6831C118.962 71.8188 119.174 70.8228 119.233 69.6948V66.8164C119.204 65.8936 119.079 65.0659 118.859 64.3335C118.64 63.5864 118.332 62.9492 117.937 62.4219C117.541 61.8945 117.028 61.4844 116.398 61.1914C115.769 60.8984 115.021 60.752 114.157 60.752C113.322 60.752 112.597 60.9424 111.982 61.3232C111.381 61.6895 110.876 62.1948 110.466 62.8394C110.07 63.4839 109.77 64.2456 109.565 65.1245C109.36 65.9888 109.257 66.9263 109.257 67.937ZM141.228 56.2256V60.708H127.385V56.2256H141.228ZM130.812 50.3589H137.141V72.8369C137.141 73.5254 137.229 74.0527 137.404 74.4189C137.595 74.7852 137.873 75.0415 138.239 75.188C138.605 75.3198 139.067 75.3857 139.624 75.3857C140.019 75.3857 140.371 75.3711 140.678 75.3418C141 75.2979 141.271 75.2539 141.491 75.21L141.513 79.8682C140.971 80.0439 140.385 80.1831 139.755 80.2856C139.125 80.3882 138.43 80.4395 137.668 80.4395C136.276 80.4395 135.061 80.2124 134.021 79.7583C132.995 79.2896 132.204 78.5425 131.647 77.5171C131.091 76.4917 130.812 75.144 130.812 73.4741V50.3589ZM151.005 46.25V80H144.677V46.25H151.005ZM150.104 67.2778H148.369C148.383 65.6226 148.603 64.0991 149.028 62.7075C149.453 61.3013 150.061 60.0854 150.852 59.0601C151.643 58.02 152.587 57.2144 153.686 56.6431C154.799 56.0718 156.03 55.7861 157.377 55.7861C158.549 55.7861 159.611 55.9546 160.563 56.2915C161.53 56.6138 162.358 57.1411 163.046 57.8735C163.75 58.5913 164.292 59.5361 164.672 60.708C165.053 61.8799 165.244 63.3008 165.244 64.9707V80H158.872V64.9268C158.872 63.8721 158.718 63.0444 158.41 62.4438C158.117 61.8286 157.685 61.3965 157.114 61.1475C156.557 60.8838 155.869 60.752 155.048 60.752C154.14 60.752 153.364 60.9204 152.719 61.2573C152.089 61.5942 151.584 62.063 151.203 62.6636C150.822 63.2495 150.544 63.938 150.368 64.729C150.192 65.52 150.104 66.3696 150.104 67.2778ZM182.888 74.6387V64.0479C182.888 63.2861 182.763 62.6343 182.514 62.0923C182.265 61.5356 181.877 61.1035 181.35 60.7959C180.837 60.4883 180.17 60.3345 179.35 60.3345C178.647 60.3345 178.039 60.459 177.526 60.708C177.014 60.9424 176.618 61.2866 176.34 61.7407C176.062 62.1802 175.922 62.7002 175.922 63.3008H169.594C169.594 62.29 169.829 61.3306 170.297 60.4224C170.766 59.5142 171.447 58.7158 172.341 58.0273C173.234 57.3242 174.296 56.7749 175.527 56.3794C176.772 55.9839 178.164 55.7861 179.702 55.7861C181.547 55.7861 183.188 56.0938 184.624 56.709C186.059 57.3242 187.187 58.2471 188.007 59.4775C188.842 60.708 189.26 62.2461 189.26 64.0918V74.2651C189.26 75.5688 189.34 76.6382 189.501 77.4731C189.663 78.2935 189.897 79.0112 190.205 79.6265V80H183.811C183.503 79.3555 183.269 78.5498 183.107 77.583C182.961 76.6016 182.888 75.6201 182.888 74.6387ZM183.723 65.52L183.767 69.1016H180.229C179.394 69.1016 178.669 69.1968 178.054 69.3872C177.438 69.5776 176.933 69.8486 176.538 70.2002C176.142 70.5371 175.849 70.9326 175.659 71.3867C175.483 71.8408 175.395 72.3389 175.395 72.8809C175.395 73.4229 175.52 73.9136 175.769 74.353C176.018 74.7778 176.376 75.1147 176.845 75.3638C177.314 75.5981 177.863 75.7153 178.493 75.7153C179.445 75.7153 180.273 75.5249 180.976 75.144C181.679 74.7632 182.221 74.2944 182.602 73.7378C182.998 73.1812 183.203 72.6538 183.217 72.1558L184.887 74.8364C184.653 75.437 184.331 76.0596 183.92 76.7041C183.525 77.3486 183.02 77.9565 182.404 78.5278C181.789 79.0845 181.049 79.5459 180.185 79.9121C179.321 80.2637 178.295 80.4395 177.109 80.4395C175.6 80.4395 174.23 80.1392 173 79.5386C171.784 78.9233 170.817 78.0811 170.1 77.0117C169.396 75.9277 169.045 74.6973 169.045 73.3203C169.045 72.0752 169.279 70.9692 169.748 70.0024C170.217 69.0356 170.905 68.2227 171.813 67.5635C172.736 66.8896 173.886 66.3843 175.263 66.0474C176.64 65.6958 178.237 65.52 180.053 65.52H183.723ZM200.334 61.3013V80H194.006V56.2256H199.938L200.334 61.3013ZM199.411 67.2778H197.697C197.697 65.52 197.924 63.938 198.378 62.5317C198.833 61.1108 199.47 59.9023 200.29 58.9062C201.11 57.8955 202.084 57.1265 203.212 56.5991C204.355 56.0571 205.629 55.7861 207.036 55.7861C208.149 55.7861 209.167 55.9473 210.09 56.2695C211.013 56.5918 211.804 57.1045 212.463 57.8076C213.137 58.5107 213.649 59.4409 214.001 60.5981C214.367 61.7554 214.55 63.1689 214.55 64.8389V80H208.178V64.8169C208.178 63.7622 208.032 62.9419 207.739 62.356C207.446 61.77 207.014 61.3599 206.442 61.1255C205.886 60.8765 205.197 60.752 204.377 60.752C203.527 60.752 202.788 60.9204 202.158 61.2573C201.542 61.5942 201.03 62.063 200.62 62.6636C200.224 63.2495 199.924 63.938 199.719 64.729C199.514 65.52 199.411 66.3696 199.411 67.2778ZM234.414 56.2256H240.148V79.209C240.148 81.377 239.665 83.2153 238.698 84.7241C237.746 86.2476 236.413 87.3975 234.699 88.1738C232.985 88.9648 230.993 89.3604 228.723 89.3604C227.727 89.3604 226.672 89.2285 225.559 88.9648C224.46 88.7012 223.405 88.291 222.395 87.7344C221.398 87.1777 220.563 86.4746 219.89 85.625L222.68 81.8896C223.413 82.7393 224.262 83.3984 225.229 83.8672C226.196 84.3506 227.265 84.5923 228.437 84.5923C229.58 84.5923 230.546 84.3799 231.337 83.9551C232.128 83.5449 232.736 82.937 233.161 82.1313C233.586 81.3403 233.798 80.3809 233.798 79.2529V61.7188L234.414 56.2256ZM218.417 68.3984V67.937C218.417 66.1206 218.637 64.4727 219.077 62.9932C219.531 61.499 220.168 60.2173 220.988 59.1479C221.823 58.0786 222.834 57.251 224.021 56.665C225.207 56.0791 226.547 55.7861 228.042 55.7861C229.624 55.7861 230.949 56.0791 232.019 56.665C233.088 57.251 233.967 58.0859 234.655 59.1699C235.344 60.2393 235.878 61.5063 236.259 62.9712C236.655 64.4214 236.962 66.0107 237.182 67.7393V68.75C236.962 70.4053 236.633 71.9434 236.193 73.3643C235.754 74.7852 235.175 76.0303 234.458 77.0996C233.74 78.1543 232.846 78.9746 231.777 79.5605C230.722 80.1465 229.462 80.4395 227.998 80.4395C226.533 80.4395 225.207 80.1392 224.021 79.5386C222.849 78.938 221.845 78.0957 221.01 77.0117C220.175 75.9277 219.531 74.6533 219.077 73.1885C218.637 71.7236 218.417 70.127 218.417 68.3984ZM224.746 67.937V68.3984C224.746 69.3799 224.841 70.2954 225.031 71.145C225.222 71.9946 225.515 72.749 225.91 73.4082C226.32 74.0527 226.826 74.5581 227.426 74.9243C228.042 75.2759 228.767 75.4517 229.602 75.4517C230.759 75.4517 231.704 75.21 232.436 74.7266C233.168 74.2285 233.718 73.5474 234.084 72.6831C234.45 71.8188 234.663 70.8228 234.721 69.6948V66.8164C234.692 65.8936 234.567 65.0659 234.348 64.3335C234.128 63.5864 233.82 62.9492 233.425 62.4219C233.029 61.8945 232.517 61.4844 231.887 61.1914C231.257 60.8984 230.51 60.752 229.646 60.752C228.811 60.752 228.085 60.9424 227.47 61.3232C226.87 61.6895 226.364 62.1948 225.954 62.8394C225.559 63.4839 225.258 64.2456 225.053 65.1245C224.848 65.9888 224.746 66.9263 224.746 67.937ZM245.378 76.9458C245.378 76.0083 245.7 75.2246 246.345 74.5947C247.004 73.9648 247.875 73.6499 248.959 73.6499C250.043 73.6499 250.908 73.9648 251.552 74.5947C252.211 75.2246 252.541 76.0083 252.541 76.9458C252.541 77.8833 252.211 78.667 251.552 79.2969C250.908 79.9268 250.043 80.2417 248.959 80.2417C247.875 80.2417 247.004 79.9268 246.345 79.2969C245.7 78.667 245.378 77.8833 245.378 76.9458ZM264.318 61.3013V80H257.99V56.2256H263.923L264.318 61.3013ZM263.396 67.2778H261.682C261.682 65.52 261.909 63.938 262.363 62.5317C262.817 61.1108 263.454 59.9023 264.274 58.9062C265.095 57.8955 266.069 57.1265 267.197 56.5991C268.339 56.0571 269.614 55.7861 271.02 55.7861C272.133 55.7861 273.151 55.9473 274.074 56.2695C274.997 56.5918 275.788 57.1045 276.447 57.8076C277.121 58.5107 277.634 59.4409 277.985 60.5981C278.352 61.7554 278.535 63.1689 278.535 64.8389V80H272.163V64.8169C272.163 63.7622 272.016 62.9419 271.723 62.356C271.43 61.77 270.998 61.3599 270.427 61.1255C269.87 60.8765 269.182 60.752 268.361 60.752C267.512 60.752 266.772 60.9204 266.142 61.2573C265.527 61.5942 265.014 62.063 264.604 62.6636C264.208 63.2495 263.908 63.938 263.703 64.729C263.498 65.52 263.396 66.3696 263.396 67.2778ZM294.289 80.4395C292.443 80.4395 290.788 80.1465 289.323 79.5605C287.858 78.96 286.613 78.1323 285.588 77.0776C284.577 76.0229 283.801 74.7998 283.259 73.4082C282.717 72.002 282.446 70.5078 282.446 68.9258V68.0469C282.446 66.2451 282.702 64.5972 283.215 63.103C283.728 61.6089 284.46 60.3125 285.412 59.2139C286.379 58.1152 287.551 57.2729 288.928 56.687C290.305 56.0864 291.857 55.7861 293.586 55.7861C295.271 55.7861 296.765 56.0645 298.068 56.6211C299.372 57.1777 300.463 57.9688 301.342 58.9941C302.236 60.0195 302.91 61.25 303.364 62.6855C303.818 64.1064 304.045 65.6885 304.045 67.4316V70.0684H285.148V65.8496H297.827V65.3662C297.827 64.4873 297.666 63.7036 297.343 63.0151C297.036 62.312 296.567 61.7554 295.937 61.3452C295.307 60.9351 294.501 60.73 293.52 60.73C292.685 60.73 291.967 60.9131 291.367 61.2793C290.766 61.6455 290.275 62.1582 289.895 62.8174C289.528 63.4766 289.25 64.2529 289.06 65.1465C288.884 66.0254 288.796 66.9922 288.796 68.0469V68.9258C288.796 69.8779 288.928 70.7568 289.191 71.5625C289.47 72.3682 289.858 73.064 290.356 73.6499C290.869 74.2358 291.484 74.6899 292.202 75.0122C292.934 75.3345 293.762 75.4956 294.685 75.4956C295.827 75.4956 296.889 75.2759 297.871 74.8364C298.867 74.3823 299.724 73.7012 300.441 72.793L303.518 76.1328C303.02 76.8506 302.338 77.5391 301.474 78.1982C300.625 78.8574 299.599 79.3994 298.398 79.8242C297.197 80.2344 295.827 80.4395 294.289 80.4395ZM319.294 56.2256V60.708H305.451V56.2256H319.294ZM308.879 50.3589H315.207V72.8369C315.207 73.5254 315.295 74.0527 315.471 74.4189C315.661 74.7852 315.939 75.0415 316.306 75.188C316.672 75.3198 317.133 75.3857 317.69 75.3857C318.085 75.3857 318.437 75.3711 318.745 75.3418C319.067 75.2979 319.338 75.2539 319.558 75.21L319.58 79.8682C319.038 80.0439 318.452 80.1831 317.822 80.2856C317.192 80.3882 316.496 80.4395 315.734 80.4395C314.343 80.4395 313.127 80.2124 312.087 79.7583C311.062 79.2896 310.271 78.5425 309.714 77.5171C309.157 76.4917 308.879 75.144 308.879 73.4741V50.3589Z" fill="#2F3A56"/>
</svg>
